<svg width="28" height="28" viewBox="0 0 28 28" fill="none" xmlns="http://www.w3.org/2000/svg">
<path fill-rule="evenodd" clip-rule="evenodd" d="M14.3362 4.67225L14.0023 4.66663C9.17118 4.66663 4.81739 8.07689 2.40432 13.6568C2.30956 13.8759 2.30956 14.124 2.40432 14.3432L2.57153 14.7196C4.95403 19.942 9.07127 23.175 13.6637 23.3277L13.9976 23.3333C18.8287 23.3333 23.1824 19.923 25.5955 14.3432C25.6915 14.1213 25.6902 13.8698 25.592 13.6488L25.4296 13.2832C23.0413 8.05102 18.9223 4.82467 14.3362 4.67225ZM14.0104 6.40428L14.2892 6.41028L14.6007 6.42649C18.3308 6.6906 21.7612 9.45641 23.8337 13.9989L23.8229 14.0269C21.6984 18.6672 18.1497 21.4494 14.302 21.5891L14.0046 21.5936L13.7047 21.5895L13.394 21.5734C9.77975 21.3174 6.44735 18.7068 4.36225 14.4196L4.16492 13.9989L4.34759 13.6105C6.54629 9.06863 10.14 6.40527 14.0104 6.40428ZM13.9993 9.46567C11.4789 9.46567 9.4365 11.4953 9.4365 14.0002C9.4365 16.5042 11.4791 18.5336 13.9993 18.5336C16.5197 18.5336 18.5633 16.504 18.5633 14.0002C18.5633 11.4954 16.5199 9.46567 13.9993 9.46567ZM13.9993 11.2044C15.5535 11.2044 16.8133 12.4558 16.8133 14.0002C16.8133 15.5436 15.5534 16.7949 13.9993 16.7949C12.4456 16.7949 11.1865 15.5439 11.1865 14.0002C11.1865 12.4555 12.4454 11.2044 13.9993 11.2044Z" fill="white"/>
</svg>
