<svg width="20" height="18" viewBox="0 0 20 18" fill="none" xmlns="http://www.w3.org/2000/svg">
<path fill-rule="evenodd" clip-rule="evenodd" d="M5.3586 0.230148C5.06449 0.0110772 4.64624 0.0354185 4.37972 0.303172L0.301942 4.39984L0.229518 4.48412C0.012343 4.77824 0.0375118 5.19485 0.304393 5.4605L0.388679 5.53292C0.682793 5.7501 1.0994 5.72493 1.36505 5.45805L4.16116 2.64845V14.4506L4.16801 14.5524C4.21767 14.9185 4.53147 15.2006 4.91116 15.2006C5.32538 15.2006 5.66116 14.8648 5.66116 14.4506V2.64858L8.4575 5.45805L8.54145 5.53086C8.83455 5.74939 9.25127 5.72615 9.51816 5.4605C9.81172 5.16828 9.81282 4.69341 9.52061 4.39984L5.44283 0.303172L5.43763 0.298666C5.41474 0.276105 5.39041 0.255005 5.36479 0.235515L5.3586 0.230148ZM15.5828 3.44462C15.5331 3.07854 15.2193 2.79639 14.8396 2.79639C14.4254 2.79639 14.0896 3.13217 14.0896 3.54639V15.3481L11.2933 12.5389L11.2093 12.4661C10.9162 12.2476 10.4995 12.2708 10.2326 12.5365C9.93905 12.8287 9.93795 13.3036 10.2302 13.5972L14.3079 17.6938L14.3131 17.6983C14.336 17.7209 14.3604 17.742 14.386 17.7615L14.3922 17.7668C14.6863 17.9859 15.1045 17.9616 15.3711 17.6938L19.4488 13.5972L19.5213 13.5129C19.7384 13.2188 19.7133 12.8021 19.4464 12.5365C19.1528 12.2443 18.6779 12.2454 18.3857 12.5389L15.5896 15.3471V3.54639L15.5828 3.44462Z" fill="#1D2032"/>
</svg>
