<svg width="28" height="28" viewBox="0 0 28 28" fill="none" xmlns="http://www.w3.org/2000/svg">
<path fill-rule="evenodd" clip-rule="evenodd" d="M13.9273 4.01038C10.9458 4.01038 8.55102 6.4052 8.55102 9.38667C8.55102 12.369 10.9456 14.764 13.9273 14.764C16.909 14.764 19.3036 12.369 19.3036 9.38667C19.3036 6.4052 16.9088 4.01038 13.9273 4.01038ZM13.9273 5.76038C15.9423 5.76038 17.5536 7.37169 17.5536 9.38667C17.5536 11.4026 15.9424 13.014 13.9273 13.014C11.9122 13.014 10.301 11.4026 10.301 9.38667C10.301 7.37169 11.9123 5.76038 13.9273 5.76038ZM7.33825 5.10923C7.8215 5.10923 8.21325 5.50098 8.21325 5.98423C8.21325 6.46748 7.8215 6.85923 7.33825 6.85923C5.95182 6.85923 4.82739 7.98317 4.82739 9.36902C4.82739 10.7549 5.95182 11.8788 7.33825 11.8788C7.8215 11.8788 8.21325 12.2706 8.21325 12.7538C8.21325 13.2371 7.8215 13.6288 7.33825 13.6288C4.98549 13.6288 3.07739 11.7215 3.07739 9.36902C3.07739 7.0165 4.98549 5.10923 7.33825 5.10923ZM24.7881 9.36902C24.7881 7.0165 22.88 5.10923 20.5273 5.10923C20.044 5.10923 19.6523 5.50098 19.6523 5.98423C19.6523 6.46748 20.044 6.85923 20.5273 6.85923C21.9137 6.85923 23.0381 7.98317 23.0381 9.36902C23.0381 10.7549 21.9137 11.8788 20.5273 11.8788C20.044 11.8788 19.6523 12.2706 19.6523 12.7538C19.6523 13.2371 20.044 13.6288 20.5273 13.6288C22.88 13.6288 24.7881 11.7215 24.7881 9.36902ZM23.9117 15.8141C23.3515 15.6877 22.7528 15.6012 22.1441 15.5592C21.662 15.526 21.2442 15.8899 21.2109 16.372C21.1777 16.8541 21.5416 17.2718 22.0237 17.3051C22.5446 17.341 23.0551 17.4147 23.5515 17.5264C24.3235 17.6779 24.8268 17.929 24.9517 18.1908C25.0456 18.3883 25.0456 18.6207 24.9508 18.8206C24.8275 19.0797 24.3284 19.3296 23.5674 19.4861C23.094 19.5834 22.7892 20.046 22.8866 20.5194C22.9839 20.9927 23.4465 21.2975 23.9199 21.2002C25.1778 20.9415 26.0992 20.4803 26.5315 19.5715C26.852 18.8958 26.852 18.1121 26.5316 17.4381C26.0962 16.5259 25.1589 16.0583 23.9117 15.8141ZM6.6546 16.372C6.62135 15.8899 6.20358 15.526 5.72147 15.5592C5.11272 15.6012 4.51402 15.6877 3.92978 15.8191L3.68893 15.8701C2.58337 16.1227 1.73993 16.5869 1.33508 17.438C1.01325 18.1114 1.01325 18.8965 1.33542 19.5722C1.76583 20.48 2.68724 20.9414 3.94565 21.2002C4.419 21.2975 4.88163 20.9927 4.97896 20.5194C5.0763 20.046 4.77148 19.5834 4.29814 19.4861C3.53737 19.3296 3.03876 19.08 2.91589 18.8208C2.82015 18.62 2.82015 18.389 2.91471 18.1912C3.03953 17.9288 3.54232 17.6779 4.29001 17.5315L4.67877 17.4519C5.06632 17.3802 5.45117 17.332 5.84188 17.3051C6.32398 17.2718 6.68785 16.8541 6.6546 16.372ZM6.0282 20.0486C6.0282 17.265 8.90746 16.2861 13.9273 16.2861L14.283 16.2877C19.093 16.3329 21.8264 17.3141 21.8264 20.0283C21.8264 22.6786 19.2136 23.6934 14.6296 23.784L13.9273 23.7908C8.89595 23.7908 6.0282 22.8291 6.0282 20.0486ZM20.0764 20.0283C20.0764 18.7326 17.9991 18.0361 13.9273 18.0361C9.85948 18.0361 7.7782 18.7437 7.7782 20.0486C7.7782 21.3444 9.85485 22.0408 13.9273 22.0408C17.9939 22.0408 20.0764 21.3325 20.0764 20.0283Z" fill="#1D2032"/>
</svg>
