<svg width="20" height="20" viewBox="0 0 20 20" fill="none" xmlns="http://www.w3.org/2000/svg">
<path d="M9.99984 13.3333C10.8839 13.3333 11.7317 12.9821 12.3569 12.357C12.982 11.7319 13.3332 10.884 13.3332 9.99996C13.3332 9.1159 12.982 8.26806 12.3569 7.64294C11.7317 7.01782 10.8839 6.66663 9.99984 6.66663C9.11578 6.66663 8.26794 7.01782 7.64281 7.64294C7.01769 8.26806 6.6665 9.1159 6.6665 9.99996C6.6665 10.884 7.01769 11.7319 7.64281 12.357C8.26794 12.9821 9.11578 13.3333 9.99984 13.3333V13.3333Z" stroke="#E6A500" stroke-width="2" stroke-linecap="round" stroke-linejoin="round"/>
<path d="M14.5832 5.41663L15.8332 4.16663M13.3332 10.3216C12.8298 10.6938 12.2096 10.8729 11.5853 10.8264C10.9611 10.7799 10.3743 10.5108 9.93162 10.0682C9.48898 9.62553 9.21994 9.03871 9.17342 8.41445C9.12691 7.79019 9.30602 7.16998 9.67817 6.66663L13.3332 10.3216ZM9.99984 1.66663V3.33329V1.66663ZM9.99984 16.6666V18.3333V16.6666ZM4.1665 4.16663L5.4165 5.41663L4.1665 4.16663ZM14.5832 14.5833L15.8332 15.8333L14.5832 14.5833ZM1.6665 9.99996H3.33317H1.6665ZM16.6665 9.99996H18.3332H16.6665ZM4.1665 15.8333L5.4165 14.5833L4.1665 15.8333Z" stroke="#E6A500" stroke-width="1.5" stroke-linecap="round" stroke-linejoin="round"/>
</svg>
